<!-- icon666.com - MILLIONS vector ICONS FREE --><svg version="1.1" id="Capa_1" xmlns="http://www.w3.org/2000/svg" xmlns:xlink="http://www.w3.org/1999/xlink" x="0px" y="0px" viewBox="0 0 512 512" style="enable-background:new 0 0 512 512;" xml:space="preserve"><g><g><path d="M135.973,0C94.058,0,59.956,34.101,59.956,76.017v359.966c0,41.916,34.102,76.017,76.017,76.017h316.071V0H135.973z M422.037,481.993H135.973c-25.37,0-46.01-20.641-46.01-46.01V136.475c12.783,9.752,28.728,15.56,46.01,15.56h286.064V481.993z M422.037,122.027H135.973c-20.118,0-37.248-12.984-43.485-31.007h329.549V122.027z M422.037,61.014H92.487 c6.236-18.023,23.368-31.007,43.486-31.007h286.064V61.014z"></path></g></g><g><g><path d="M219.982,223.07h-28.461l-49.808,136.541h32.308l10.384-30.578h42.501l10.576,30.577h32.308L219.982,223.07z M189.404,307.303l16.347-48.27l15.962,48.27H189.404z"></path></g></g><g><g><path d="M371.041,331.437c-0.962-1.217-1.442-3.366-1.442-6.443v-25.962c0-13.846-4.168-24.357-12.5-31.539 c-8.336-7.179-20.13-10.769-35.385-10.769c-8.077,0-15.707,1.091-22.885,3.27c-7.182,2.181-14.105,5.451-20.77,9.808l9.038,19.231 c5.511-3.717,10.77-6.505,15.771-8.366c5-1.857,10.255-2.789,15.77-2.789c13.461,0,20.193,5.835,20.193,17.5v4.615 c-2.951-1.409-6.411-2.467-10.384-3.173c-3.976-0.703-8.077-1.057-12.309-1.057c-6.411,0-12.244,0.835-17.5,2.5 c-5.258,1.667-9.808,3.976-13.653,6.924c-3.847,2.951-6.827,6.475-8.943,10.577c-2.115,4.104-3.174,8.654-3.174,13.654 c0,4.615,0.896,8.879,2.693,12.789c1.793,3.912,4.231,7.308,7.308,10.192c3.077,2.885,6.762,5.129,11.059,6.73 c4.294,1.601,8.942,2.404,13.942,2.404c6.923,0,13.491-1.538,19.711-4.616c6.217-3.077,11.568-7.5,16.058-13.269l0.577,4.615 c0.769,4.104,2.627,7.278,5.576,9.519c2.948,2.242,7.309,3.366,13.077,3.366c1.794,0,3.78-0.096,5.962-0.288 c2.179-0.192,4.615-0.61,7.308-1.25v-25.962C373.699,333.393,372.002,332.657,371.041,331.437z M338.83,325.763 c0,2.566-1.475,5-4.423,7.308c-2.052,1.923-4.648,3.462-7.789,4.615c-3.143,1.154-6.379,1.73-9.711,1.73 c-4.36,0-7.951-1.184-10.769-3.558c-2.822-2.372-4.231-5.415-4.231-9.135c-0.001-4.099,1.826-7.432,5.48-9.998 c3.654-2.564,8.3-3.846,13.943-3.846c2.692,0,5.606,0.289,8.75,0.865c3.141,0.577,6.058,1.379,8.75,2.404V325.763z"></path></g></g></svg>