<!-- icon666.com - MILLIONS vector ICONS FREE --><svg id="Layer_1" viewBox="0 0 512 512" xmlns="http://www.w3.org/2000/svg" data-name="Layer 1"><path d="m290.809 148.87a13.392 13.392 0 0 0 -14.654 0l-68.311 43.98-59.729.15a9.866 9.866 0 0 0 -1.3.088c-14.715 1.964-25.815 15.121-25.815 30.612v62.659c0 15.486 11.1 28.644 25.818 30.607a9.866 9.866 0 0 0 1.3.088l56.7.153 71.341 45.929a13.391 13.391 0 0 0 14.645.007 14.285 14.285 0 0 0 6.51-12.11v-190.06a14.278 14.278 0 0 0 -6.505-12.103zm-13.5 191.219-64.13-41.289a10 10 0 0 0 -5.387-1.592l-58.845-.159c-4.5-.895-7.947-5.482-7.947-10.7v-62.649c0-5.215 3.45-9.8 7.946-10.695l61.876-.159a10 10 0 0 0 5.387-1.592l61.1-39.337zm75.807-86.321a61.567 61.567 0 0 1 -19.564 44.916 10 10 0 0 1 -13.626-14.641 41.34 41.34 0 0 0 0-60.55 10 10 0 1 1 13.625-14.64 61.555 61.555 0 0 1 19.565 44.915zm37.884 0a83.825 83.825 0 0 1 -27.76 62.247 10 10 0 0 1 -13.37-14.875 63.668 63.668 0 0 0 0-94.745 10 10 0 1 1 13.37-14.874 83.822 83.822 0 0 1 27.76 62.247zm-135-253.768c-141.159 0-256 114.841-256 256s114.841 256 256 256 256-114.841 256-256-114.841-256-256-256zm0 492c-130.131 0-236-105.869-236-236s105.869-236 236-236 236 105.869 236 236-105.869 236-236 236z"></path></svg>