<!-- icon666.com - MILLIONS vector ICONS FREE --><svg viewBox="0 0 64 64" xmlns="http://www.w3.org/2000/svg"><g id="_20-Moon" data-name="20-Moon"><path d="m57.98438 38.83594a28.22052 28.22052 0 1 1 -32.81938-32.82032 1 1 0 0 1 .77051 1.78907 21.64563 21.64563 0 1 0 30.25931 30.26074 1.00022 1.00022 0 0 1 1.78956.77051zm-23.05274-25.28809-.86279 5.291a1 1 0 0 0 1.4707 1.03613l4.46045-2.4658 4.46045 2.46582a1 1 0 0 0 1.4707-1.03613l-.86279-5.291 3.64746-3.73828a.99977.99977 0 0 0 -.56494-1.68659l-5-.76465-2.24561-4.78315a1 1 0 0 0 -1.81054 0l-2.24561 4.7832-5 .76465a.99977.99977 0 0 0 -.56494 1.68652zm27.0166 10.71875a1 1 0 0 0 -.79736-.6709l-3.61817-.5537-1.62744-3.4668a1 1 0 0 0 -1.81054 0l-1.62744 3.4668-3.61817.55371a.99978.99978 0 0 0 -.56494 1.68653l2.64746 2.71289-.62646 3.84375a1 1 0 0 0 1.4707 1.03613l3.22412-1.78224 3.22412 1.78223a1 1 0 0 0 1.4707-1.03613l-.62646-3.84375 2.64746-2.71289a.9995.9995 0 0 0 .23242-1.01563zm-32.0166 10.72852-.62646 3.84375a1 1 0 0 0 1.4707 1.03613l3.22412-1.78223 3.22412 1.78223a1 1 0 0 0 1.4707-1.03613l-.62646-3.84375 2.64746-2.71289a.99978.99978 0 0 0 -.56494-1.68653l-3.61817-.5537-1.62744-3.4668a1 1 0 0 0 -1.81054 0l-1.62744 3.4668-3.61817.55371a.99978.99978 0 0 0 -.56494 1.68653z" fill="#000000" style="fill: rgb(121, 74, 74);"></path></g></svg>