<!-- icon666.com - MILLIONS vector ICONS FREE --><svg id="Layer_1" enable-background="new 0 0 512.009 512.009" viewBox="0 0 512.009 512.009" xmlns="http://www.w3.org/2000/svg"><path d="m256.97 10.222-154.055 133.68h-54.915c-26.467 0-48 21.532-48 48v128c0 26.468 21.533 48 48 48h53.644l155.439 133.998c-.105 0 10.588 9.987 25.714 9.985 23.372 0 45.204-22.883 45.204-57.13v-397.484c-.001-47.912-41.969-72.265-71.031-47.049zm-224.97 309.68v-128c0-8.822 7.178-16 16-16h48v160h-48c-8.822 0-16-7.178-16-16zm264 134.853c0 12.849-5.495 22.09-10.923 24.577-1.75.802-3.823 1.155-7.1-1.669l-149.977-129.29v-183.871l149.943-130.11c3.287-2.854 5.366-2.506 7.122-1.704 5.434 2.479 10.935 11.72 10.935 24.583z" fill="#000000" style="fill: rgb(255, 255, 255);"></path><path d="m428 399.902c-8.836 0-16-7.163-16-16s7.164-16 16-16c24.595 0 52-45.997 52-112s-27.405-112-52-112c-8.836 0-16-7.163-16-16s7.164-16 16-16c76.905 0 108.991 153.965 62.213 242.017-15.753 29.652-37.848 45.983-62.213 45.983z" fill="#000000" style="fill: rgb(255, 255, 255);"></path><path d="m383.143 354.188c-8.836 0-16-7.163-16-16s7.164-16 16-16c11.033 0 27.714-26.438 27.714-66.286s-16.681-66.286-27.714-66.286c-8.836 0-16-7.163-16-16s7.164-16 16-16c55.312 0 76.568 104.631 45.041 163.978-11.167 21.019-27.163 32.594-45.041 32.594z" fill="#000000" style="fill: rgb(255, 255, 255);"></path></svg>