<!-- icon666.com - MILLIONS vector ICONS FREE --><svg id="Layer_1" enable-background="new 0 0 512.019 512.019" viewBox="0 0 512.019 512.019" xmlns="http://www.w3.org/2000/svg"><path d="m256.97 10.199-154.055 133.68h-54.915c-26.468 0-48 21.532-48 48v128c0 26.468 21.532 48 48 48h53.643l155.439 133.998c29.428 25.368 70.918.113 70.918-47.144v-397.485c0-47.911-41.969-72.265-71.03-47.049zm-224.97 309.68v-128c0-8.822 7.178-16 16-16h48v160h-48c-8.822 0-16-7.178-16-16zm264 134.854c0 12.849-5.495 22.09-10.923 24.577-1.749.801-3.822 1.157-7.101-1.669l-149.976-129.29v-183.871l149.942-130.11c3.287-2.854 5.367-2.506 7.122-1.704 5.435 2.479 10.936 11.719 10.936 24.582z" fill="#000000" style="fill: rgb(255, 255, 255);"></path><path d="m507.234 299.153-48.607-47.933 47.933-48.607c6.204-6.292 6.134-16.422-.158-22.627-6.293-6.206-16.424-6.134-22.627.158l-47.933 48.607-48.607-47.933c-6.293-6.206-16.424-6.134-22.627.158-6.204 6.292-6.134 16.422.158 22.627l48.607 47.933-47.933 48.607c-9.974 10.115-2.704 27.234 11.392 27.234 4.133 0 8.263-1.591 11.394-4.766l47.933-48.607 48.607 47.933c3.117 3.074 7.177 4.607 11.233 4.607 14.18.002 21.455-17.312 11.235-27.391z" fill="#000000" style="fill: rgb(255, 255, 255);"></path></svg>