<!-- icon666.com - MILLIONS vector ICONS FREE --><svg id="Layer_2" enable-background="new 0 0 64 64" viewBox="0 0 64 64" xmlns="http://www.w3.org/2000/svg"><path d="m28.353 11.993c-.123-1.609.176-4.231 2.901-6.034.105-.069.2-.153.28-.25.09-.108 1.8-2.21 1.364-5.709.566.413 1.155.99 1.643 1.792 1.384 2.282 1.495 5.724.333 10.005-.778-.175-1.837-.345-3.03-.345-1.246 0-2.414.182-3.491.541zm3.803 40.555c-1.193 0-2.252-.169-3.03-.345-1.162 4.281-1.051 7.723.333 10.005.487.802 1.076 1.379 1.643 1.792-.436-3.499 1.274-5.602 1.364-5.709.081-.097.175-.181.28-.25 2.725-1.803 3.024-4.425 2.901-6.034-1.077.359-2.245.541-3.491.541zm14.263-35.188c.843.843 1.473 1.712 1.899 2.387 3.848-2.206 6.205-4.718 6.839-7.311.222-.912.214-1.736.105-2.428-2.166 2.782-4.861 3.06-5.002 3.072-.125.012-.251.005-.374-.021-3.202-.652-5.268.99-6.319 2.215 1.016.507 1.971 1.205 2.852 2.086zm-28.838 29.28c-.843-.843-1.473-1.712-1.899-2.387-3.848 2.206-6.205 4.718-6.839 7.311-.223.911-.215 1.736-.106 2.428 2.166-2.782 4.861-3.06 5.002-3.072.125-.012.251-.005.374.021 3.202.652 5.268-.99 6.319-2.215-1.015-.507-1.97-1.205-2.851-2.086zm34.967-14.796c0 1.193-.169 2.252-.345 3.03 4.28 1.162 7.723 1.051 10.005-.333.802-.487 1.379-1.076 1.792-1.643-3.499.436-5.602-1.274-5.709-1.364-.097-.081-.181-.175-.25-.28-1.803-2.725-4.425-3.024-6.034-2.901.359 1.076.541 2.245.541 3.491zm-41.096.312c0-1.193.169-2.252.345-3.03-4.28-1.162-7.723-1.051-10.005.333-.802.487-1.379 1.076-1.792 1.642 3.499-.436 5.602 1.274 5.709 1.364.097.081.181.175.25.28 1.803 2.725 4.425 3.024 6.034 2.901-.359-1.075-.541-2.244-.541-3.49zm35.188 14.263c-.843.843-1.712 1.473-2.387 1.899 2.206 3.848 4.718 6.205 7.311 6.839.912.222 1.736.214 2.428.105-2.782-2.166-3.06-4.861-3.072-5.002-.012-.125-.005-.251.021-.374.652-3.202-.99-5.268-2.215-6.319-.507 1.016-1.205 1.971-2.086 2.852zm-29.28-28.838c.843-.843 1.712-1.473 2.387-1.899-2.206-3.848-4.718-6.205-7.311-6.839-.911-.223-1.736-.215-2.428-.106 2.782 2.166 3.06 4.861 3.072 5.002.012.125.005.251-.021.374-.652 3.202.99 5.268 2.215 6.319.507-1.015 1.205-1.97 2.086-2.851zm-1.365 14.42c0 8.825 7.18 16.004 16.006 16.004s16.005-7.179 16.005-16.004c0-8.826-7.179-16.006-16.005-16.006s-16.006 7.18-16.006 16.006z" fill="#000000" style="fill: rgb(250, 250, 250);"></path></svg>