<!-- icon666.com - MILLIONS vector ICONS FREE --><svg id="Layer_1" enable-background="new 0 0 511.5 511.5" viewBox="0 0 511.5 511.5" xmlns="http://www.w3.org/2000/svg"><path d="m160.5 362.604 96 48.403v-254.632l-96-40.336z" fill="#000000" style="fill: rgb(149, 50, 50);"></path><path d="m255.5 40c-119.294 0-216 96.707-216 216s96.706 216 216 216 216-96.707 216-216-96.706-216-216-216zm97 327.529c0 4.418-3.582 8-8 8h-72v48.471c0 5.947-6.283 9.825-11.602 7.144-122.437-61.733-113.564-56.665-115.27-59.533-1.65-2.771-1.128 14.344-1.128-267.61 0-4.141 3.157-7.573 7.227-7.961.611-.062-6.505-.04 192.773-.04 4.418 0 8 3.582 8 8v56c0 4.418-3.582 8-8 8s-8-3.582-8-8v-48h-144.307l75.406 31.683c2.969 1.248 4.901 4.155 4.901 7.375v208.471h64v-55.529c0-4.418 3.582-8 8-8s8 3.582 8 8zm44.277-135.15c-.308 4.038.293 2.471-30.966 33.315-1.559 1.538-3.589 2.306-5.619 2.306-7.078 0-10.738-8.644-5.62-13.694l14.737-14.541h-56.809c-4.418 0-8-3.582-8-8s3.582-8 8-8h56.81l-14.737-14.541c-3.145-3.103-3.179-8.168-.075-11.313 3.103-3.144 8.168-3.179 11.313-.075 29.498 29.105 31.35 29.544 30.966 34.543z" fill="#000000" style="fill: rgb(149, 50, 50);"></path><path d="m255.75 511.5c-141.345 0-255.75-114.385-255.75-255.75 0-141.345 114.385-255.75 255.75-255.75 141.345 0 255.75 114.385 255.75 255.75 0 141.345-114.385 255.75-255.75 255.75zm0-495.5c-132.199 0-239.75 107.551-239.75 239.75s107.551 239.75 239.75 239.75 239.75-107.551 239.75-239.75-107.551-239.75-239.75-239.75z" fill="#000000" style="fill: rgb(149, 50, 50);"></path></svg>